<?xml version="1.0" encoding="UTF-8" standalone="no"?>
<!-- Created with Inkscape (http://www.inkscape.org/) -->

<svg
   xmlns:dc="http://purl.org/dc/elements/1.1/"
   xmlns:cc="http://creativecommons.org/ns#"
   xmlns:rdf="http://www.w3.org/1999/02/22-rdf-syntax-ns#"
   xmlns:svg="http://www.w3.org/2000/svg"
   xmlns="http://www.w3.org/2000/svg"
   xmlns:sodipodi="http://sodipodi.sourceforge.net/DTD/sodipodi-0.dtd"
   xmlns:inkscape="http://www.inkscape.org/namespaces/inkscape"
   width="32"
   height="32"
   viewBox="0 0 8.4666663 8.466667"
   version="1.1"
   id="svg8"
   inkscape:version="0.92.2 (5c3e80d, 2017-08-06)"
   sodipodi:docname="configuration-blanc.svg">
  <defs
     id="defs2" />
  <sodipodi:namedview
     id="base"
     pagecolor="#ffffff"
     bordercolor="#666666"
     borderopacity="1.0"
     inkscape:pageopacity="0.0"
     inkscape:pageshadow="2"
     inkscape:zoom="3.9999998"
     inkscape:cx="-44.146234"
     inkscape:cy="21.264229"
     inkscape:document-units="mm"
     inkscape:current-layer="layer1"
     showgrid="true"
     units="px"
     showguides="false"
     inkscape:guide-bbox="true"
     inkscape:snap-global="false"
     inkscape:window-width="1280"
     inkscape:window-height="736"
     inkscape:window-x="0"
     inkscape:window-y="27"
     inkscape:window-maximized="1"
     inkscape:pagecheckerboard="true">
    <inkscape:grid
       type="xygrid"
       id="grid10"
       empspacing="8" />
    <sodipodi:guide
       position="0.52916664,5.8208336"
       orientation="1,0"
       id="guide3705"
       inkscape:locked="false" />
    <sodipodi:guide
       position="9.5249996,7.9375003"
       orientation="0,1"
       id="guide3707"
       inkscape:locked="false" />
    <sodipodi:guide
       position="8.4666667,0.52916667"
       orientation="0,1"
       id="guide3709"
       inkscape:locked="false" />
    <sodipodi:guide
       position="7.9374997,0.26458334"
       orientation="1,0"
       id="guide3711"
       inkscape:locked="false" />
    <sodipodi:guide
       position="10.847917,4.2333333"
       orientation="0,1"
       id="guide3713"
       inkscape:locked="false" />
    <sodipodi:guide
       position="4.2333331,4.4979168"
       orientation="1,0"
       id="guide3715"
       inkscape:locked="false" />
  </sodipodi:namedview>
  <metadata
     id="metadata5">
    <rdf:RDF>
      <cc:Work
         rdf:about="">
        <dc:format>image/svg+xml</dc:format>
        <dc:type
           rdf:resource="http://purl.org/dc/dcmitype/StillImage" />
        <dc:title></dc:title>
      </cc:Work>
    </rdf:RDF>
  </metadata>
  <g
     inkscape:label="Calque 1"
     inkscape:groupmode="layer"
     id="layer1"
     transform="translate(0,-288.53331)">
    <path
       inkscape:connector-curvature="0"
       id="path820"
       d="m 1.2960618,294.87886 0.7823308,-0.009 a 3.0484194,3.0484063 0 0 0 0.3666212,0.31623 l 0.1220921,0.77801 1.12003,0.36329 0.55351,-0.56819 a 3.0484194,3.0484063 0 0 0 0.464442,-0.0359 l 0.6473497,0.47197 1.0488043,-0.5346 -0.01017,-0.80315 a 3.0484194,3.0484063 0 0 0 0.2970012,-0.34317 l 0.7974117,-0.12512 0.3633465,-1.12004 -0.5751979,-0.56036 a 3.0484194,3.0484063 0 0 0 -0.033773,-0.45107 l 0.4767749,-0.65386 -0.5345919,-1.04878 -0.7961853,0.009 a 3.0484194,3.0484063 0 0 0 -0.3513247,-0.30649 l -0.1235609,-0.78773 -1.1200299,-0.36329 -0.5464109,0.5605 a 3.0484194,3.0484063 0 0 0 -0.4825046,0.0359 l -0.6364222,-0.46419 -1.0487857,0.53458 0.00993,0.77541 a 3.0484194,3.0484063 0 0 0 -0.3263411,0.37524 l -0.76784159,0.12039 -0.36334369,1.12001 0.55377758,0.53996 a 3.0484194,3.0484063 0 0 0 0.03781,0.49543 l -0.45939508,0.62993 z m 1.9878648,-1.68404 a 1.0601006,1.060096 0 0 1 0.4631657,-1.42622 1.0601006,1.060096 0 0 1 1.4257718,0.46339 1.0601006,1.060096 0 0 1 -0.4629453,1.42553 1.0601006,1.060096 0 0 1 -1.4259922,-0.4627 z"
       style="opacity:1;fill:none;fill-opacity:1;stroke:#ffffff;stroke-width:0.52916667;stroke-linecap:round;stroke-linejoin:round;stroke-miterlimit:4;stroke-dasharray:none;stroke-opacity:1;paint-order:stroke markers fill" />
  </g>
</svg>
