<?xml version="1.0" encoding="UTF-8" standalone="no"?>
<!-- Created with Inkscape (http://www.inkscape.org/) -->

<svg
   xmlns:dc="http://purl.org/dc/elements/1.1/"
   xmlns:cc="http://creativecommons.org/ns#"
   xmlns:rdf="http://www.w3.org/1999/02/22-rdf-syntax-ns#"
   xmlns:svg="http://www.w3.org/2000/svg"
   xmlns="http://www.w3.org/2000/svg"
   xmlns:sodipodi="http://sodipodi.sourceforge.net/DTD/sodipodi-0.dtd"
   xmlns:inkscape="http://www.inkscape.org/namespaces/inkscape"
   width="32"
   height="32"
   viewBox="0 0 8.4666663 8.466667"
   version="1.1"
   id="svg8"
   inkscape:version="0.92.2 (5c3e80d, 2017-08-06)"
   sodipodi:docname="configuration.svg">
  <defs
     id="defs2" />
  <sodipodi:namedview
     id="base"
     pagecolor="#ffffff"
     bordercolor="#666666"
     borderopacity="1.0"
     inkscape:pageopacity="0.0"
     inkscape:pageshadow="2"
     inkscape:zoom="3.9999998"
     inkscape:cx="-42.646234"
     inkscape:cy="22.264229"
     inkscape:document-units="mm"
     inkscape:current-layer="layer1"
     showgrid="true"
     units="px"
     showguides="false"
     inkscape:guide-bbox="true"
     inkscape:snap-global="false"
     inkscape:window-width="1280"
     inkscape:window-height="736"
     inkscape:window-x="0"
     inkscape:window-y="27"
     inkscape:window-maximized="1">
    <inkscape:grid
       type="xygrid"
       id="grid10"
       empspacing="8" />
    <sodipodi:guide
       position="0.52916664,5.8208336"
       orientation="1,0"
       id="guide3705"
       inkscape:locked="false" />
    <sodipodi:guide
       position="9.5249996,7.9375003"
       orientation="0,1"
       id="guide3707"
       inkscape:locked="false" />
    <sodipodi:guide
       position="8.4666667,0.52916667"
       orientation="0,1"
       id="guide3709"
       inkscape:locked="false" />
    <sodipodi:guide
       position="7.9374997,0.26458334"
       orientation="1,0"
       id="guide3711"
       inkscape:locked="false" />
    <sodipodi:guide
       position="10.847917,4.2333333"
       orientation="0,1"
       id="guide3713"
       inkscape:locked="false" />
    <sodipodi:guide
       position="4.2333331,4.4979168"
       orientation="1,0"
       id="guide3715"
       inkscape:locked="false" />
  </sodipodi:namedview>
  <metadata
     id="metadata5">
    <rdf:RDF>
      <cc:Work
         rdf:about="">
        <dc:format>image/svg+xml</dc:format>
        <dc:type
           rdf:resource="http://purl.org/dc/dcmitype/StillImage" />
        <dc:title />
      </cc:Work>
    </rdf:RDF>
  </metadata>
  <g
     inkscape:label="Calque 1"
     inkscape:groupmode="layer"
     id="layer1"
     transform="translate(0,-288.53331)">
    <path
       style="opacity:1;fill:none;fill-opacity:1;stroke:#000000;stroke-width:0.22375587;stroke-linecap:round;stroke-linejoin:round;stroke-miterlimit:4;stroke-dasharray:none;stroke-opacity:1;paint-order:stroke markers fill"
       d="m 3.5868214,295.86736 0.3307785,-0.004 a 1.2888582,1.2888582 0 0 0 0.1550046,0.1337 l 0.05162,0.32893 0.4735438,0.15361 0.2340227,-0.24024 a 1.2888582,1.2888582 0 0 0 0.1963642,-0.0152 l 0.2736966,0.19955 0.4434285,-0.22601 -0.0043,-0.33957 a 1.2888582,1.2888582 0 0 0 0.1255688,-0.14497 l 0.3371421,-0.0528 0.1536217,-0.47355 -0.2431912,-0.23693 a 1.2888582,1.2888582 0 0 0 -0.014279,-0.19071 l 0.2015783,-0.27645 -0.226023,-0.44342 -0.3366363,0.004 a 1.2888582,1.2888582 0 0 0 -0.1485383,-0.12964 l -0.052242,-0.33304 -0.4735436,-0.15361 -0.2310214,0.237 a 1.2888582,1.2888582 0 0 0 -0.2040008,0.0152 l -0.2690753,-0.19625 -0.4434217,0.22602 0.0042,0.32784 a 1.2888582,1.2888582 0 0 0 -0.1379756,0.15865 l -0.3246386,0.0509 -0.1536214,0.47355 0.2341347,0.2283 a 1.2888582,1.2888582 0 0 0 0.015986,0.20947 l -0.1942294,0.26632 z m 0.8404604,-0.71201 a 0.44820583,0.44820583 0 0 1 0.1958243,-0.603 0.44820583,0.44820583 0 0 1 0.60281,0.19592 0.44820583,0.44820583 0 0 1 -0.1957298,0.60271 0.44820583,0.44820583 0 0 1 -0.6029045,-0.19563 z"
       id="path932"
       inkscape:connector-curvature="0" />
    <path
       inkscape:connector-curvature="0"
       id="path820"
       d="m 3.6892867,291.34864 0.330766,-0.004 a 1.2888582,1.2888582 0 0 0 0.1550058,0.1337 l 0.05162,0.32894 0.4735437,0.1536 0.2340216,-0.24023 a 1.2888582,1.2888582 0 0 0 0.196364,-0.0152 l 0.2736966,0.19955 0.4434298,-0.22603 -0.0043,-0.33957 a 1.2888582,1.2888582 0 0 0 0.1255708,-0.14509 l 0.3371421,-0.0529 0.1536213,-0.47355 -0.2431911,-0.23692 a 1.2888582,1.2888582 0 0 0 -0.014279,-0.19071 l 0.2015783,-0.27645 -0.2260231,-0.44342 -0.3366236,0.004 a 1.2888582,1.2888582 0 0 0 -0.1485385,-0.12958 l -0.052241,-0.33305 -0.4735437,-0.1536 -0.2310201,0.23698 a 1.2888582,1.2888582 0 0 0 -0.2040008,0.0152 l -0.2690765,-0.19626 -0.4434219,0.22602 0.0042,0.32784 a 1.2888582,1.2888582 0 0 0 -0.1379756,0.15865 l -0.32464,0.0509 -0.1536201,0.47354 0.2341347,0.22829 a 1.2888582,1.2888582 0 0 0 0.015986,0.20947 l -0.1942302,0.26633 z m 0.8404604,-0.71201 a 0.44820583,0.44820583 0 0 1 0.1958244,-0.603 0.44820583,0.44820583 0 0 1 0.60281,0.19592 0.44820583,0.44820583 0 0 1 -0.1957312,0.60271 0.44820583,0.44820583 0 0 1 -0.6029032,-0.19563 z"
       style="opacity:1;fill:none;fill-opacity:1;stroke:#000000;stroke-width:0.22375587;stroke-linecap:round;stroke-linejoin:round;stroke-miterlimit:4;stroke-dasharray:none;stroke-opacity:1;paint-order:stroke markers fill" />
    <path
       style="opacity:1;fill:none;fill-opacity:1;stroke:#000000;stroke-width:0.22375587;stroke-linecap:round;stroke-linejoin:round;stroke-miterlimit:4;stroke-dasharray:none;stroke-opacity:1;paint-order:stroke markers fill"
       d="m 1.4762911,293.6753 0.328501,-0.0389 a 1.2888582,1.2888582 0 0 0 0.1681728,0.11671 l 0.085823,0.32172 0.4870477,0.10309 0.2075369,-0.26346 a 1.2888582,1.2888582 0 0 0 0.1936936,-0.0357 l 0.2931095,0.16974 0.4172835,-0.27128 -0.039884,-0.33725 a 1.2888582,1.2888582 0 0 0 0.1096718,-0.15733 l 0.3297393,-0.0879 0.1031149,-0.48704 -0.2666976,-0.21013 a 1.2888582,1.2888582 0 0 0 -0.034203,-0.18815 l 0.1714779,-0.29607 -0.2713077,-0.41727 -0.3343257,0.0396 a 1.2888582,1.2888582 0 0 0 -0.1613174,-0.11334 l -0.086846,-0.32573 -0.4870476,-0.10309 -0.2048935,0.25991 a 1.2888582,1.2888582 0 0 0 -0.2012707,0.0364 l -0.2881729,-0.16695 -0.4172761,0.27128 0.038563,0.32558 a 1.2888582,1.2888582 0 0 0 -0.1205829,0.17225 l -0.3175076,0.0847 -0.1031149,0.48705 0.2567859,0.20248 a 1.2888582,1.2888582 0 0 0 0.037905,0.20661 l -0.1652315,0.28523 z m 0.7611547,-0.79622 a 0.44820583,0.44820583 0 0 1 0.131507,-0.62022 0.44820583,0.44820583 0 0 1 0.6200252,0.13165 0.44820583,0.44820583 0 0 1 -0.1314449,0.61992 0.44820583,0.44820583 0 0 1 -0.6200909,-0.13132 z"
       id="path822"
       inkscape:connector-curvature="0" />
  </g>
</svg>
